PathFileType	3	(X/Y/Z)	running_1__view2_aligned.trc
DataRate	CameraRate	NumFrames	NumMarkers	Units	OrigDataRate	OrigDataStartFrame	OrigNumFrames
100.0	100.0	6	19	mm	100.0	2608	6426
Frame#	Time	pelvis			neck			head			hip_left			hip_right			knee_left			knee_right			ankle_left			ankle_right			heel_left			heel_right			toe_left			toe_right			shoulder_left			shoulder_right			elbow_left			elbow_right			wrist_left			wrist_right			
		X1	Y1	Z1	X2	Y2	Z2	X3	Y3	Z3	X4	Y4	Z4	X5	Y5	Z5	X6	Y6	Z6	X7	Y7	Z7	X8	Y8	Z8	X9	Y9	Z9	X10	Y10	Z10	X11	Y11	Z11	X12	Y12	Z12	X13	Y13	Z13	X14	Y14	Z14	X15	Y15	Z15	X16	Y16	Z16	X17	Y17	Z17	X18	Y18	Z18	X19	Y19	Z19	
2608	26.07000	-43.215130	944.301573	170.092903	-47.305420	1496.272142	265.696143	-49.055834	1588.212463	411.645339	31.107568	943.863468	169.368934	-117.538064	944.739701	170.816848	65.398277	550.098779	333.962384	-134.012010	517.122006	193.799255	55.324304	255.327788	120.040411	-142.633880	176.101352	11.697787	49.725945	233.379652	74.721249	-142.845964	144.578035	-32.116703	53.670701	136.038472	229.039485	-140.793562	77.354838	146.676186	108.510707	1458.109405	189.004641	-217.356818	1445.962309	238.746976	190.151325	1241.936656	23.390710	-284.015099	1171.709876	199.558963	227.712094	1070.024346	172.276274	-167.974805	1140.476278	398.145744
2609	26.08000	-42.369589	943.301379	170.343574	-45.573462	1495.283890	265.651098	-46.630899	1587.253844	411.731096	32.000437	942.789903	169.917361	-116.739849	943.812879	170.769762	64.447820	550.395676	341.818902	-135.636200	514.606529	186.987329	54.591596	252.703351	133.486184	-143.443183	180.410499	-3.893444	49.282462	229.773392	88.743017	-143.209145	150.663523	-48.288993	51.614458	137.138595	245.193420	-142.805054	77.771520	125.845564	109.569416	1457.372938	186.795888	-216.293191	1444.438793	240.175332	191.081675	1243.002793	15.918383	-282.296911	1167.357059	205.826000	235.558981	1065.217100	164.572950	-160.525462	1142.550359	406.753388
2610	26.09000	-39.586322	941.702334	169.708709	-42.423327	1493.634235	265.704277	-43.388587	1585.948962	411.723477	34.851992	941.225568	169.309096	-114.024848	942.179121	170.108302	66.746010	548.994416	345.134302	-133.826364	513.418018	185.692829	57.182582	246.768732	142.636109	-141.905252	185.193923	-16.522150	52.094706	222.429754	98.462439	-141.460884	157.165822	-61.924815	53.658595	135.632595	258.542453	-142.186352	77.685088	108.940814	112.586296	1455.672949	186.211697	-213.422791	1442.661500	240.691470	194.218427	1241.813655	13.621883	-279.455012	1164.638389	207.466910	240.936336	1061.357697	163.204098	-155.409208	1141.852002	409.314047
2611	26.10000	-36.803055	940.103289	169.073845	-39.273192	1491.984580	265.757457	-40.146276	1584.644081	411.715859	37.703548	939.661233	168.700832	-111.309847	940.545363	169.446841	69.044200	547.593156	348.449702	-132.016528	512.229506	184.398329	59.773567	240.834114	151.786035	-140.367321	189.977347	-29.150856	54.906951	215.086116	108.181861	-139.712624	163.668120	-75.560637	55.702732	134.126596	271.891487	-141.567650	77.598655	92.036064	115.603175	1453.972960	185.627505	-210.552391	1440.884206	241.207608	197.355179	1240.624518	11.325383	-276.613113	1161.919719	209.107820	246.313690	1057.498294	161.835245	-150.292954	1141.153646	411.874705
2612	26.11000	-34.019789	938.504244	168.438980	-36.123057	1490.334924	265.810636	-36.903964	1583.339199	411.708240	40.555104	938.096898	168.092567	-108.594846	938.911606	168.785381	71.342390	546.191896	351.765102	-130.206692	511.040995	183.103829	62.364553	234.899495	160.935960	-138.829390	194.760772	-41.779561	57.719195	207.742478	117.901283	-137.964364	170.170419	-89.196458	57.746869	132.620596	285.240520	-140.948948	77.512223	75.131313	118.620055	1452.272971	185.043313	-207.681992	1439.106913	241.723746	200.491930	1239.435381	9.028883	-273.771215	1159.201049	210.748731	251.691045	1053.638892	160.466392	-145.176700	1140.455290	414.435363
2613	26.12000	-31.236522	936.905199	167.804116	-32.972922	1488.685269	265.863815	-33.661652	1582.034318	411.700621	43.406659	936.532563	167.484303	-105.879845	937.277848	168.123920	73.640581	544.790636	355.080503	-128.396855	509.852483	181.809328	64.955539	228.964876	170.085885	-137.291459	199.544196	-54.408267	60.531439	200.398841	127.620705	-136.216103	176.672717	-102.832280	59.791006	131.114596	298.589553	-140.330246	77.425790	58.226563	121.636934	1450.572981	184.459122	-204.811592	1437.329620	242.239883	203.628682	1238.246243	6.732383	-270.929316	1156.482379	212.389641	257.068400	1049.779489	159.097539	-140.060446	1139.756934	416.996022
